<?xml version="1.0" encoding="utf-8"?>
<!-- Generator: Adobe Illustrator 29.8.2, SVG Export Plug-In . SVG Version: 9.03 Build 0)  -->
<svg version="1.0" id="Layer_1" xmlns="http://www.w3.org/2000/svg" xmlns:xlink="http://www.w3.org/1999/xlink" x="0px" y="0px"
	 viewBox="0 0 257 93" style="enable-background:new 0 0 257 93;" xml:space="preserve">
<style type="text/css">
	.st0{display:none;}
	.st1{fill:none;stroke:#FFFFFF;stroke-width:0.8454;stroke-miterlimit:10;}
	.st2{fill:none;stroke:#FFFFFF;stroke-width:0.8454;stroke-miterlimit:10;stroke-dasharray:4.6095,1.8438;}
	.st3{fill:none;stroke:#FFFFFF;stroke-width:0.8454;stroke-miterlimit:10;stroke-dasharray:4.5276,1.811;}
	.st4{fill:#FFFFFF;}
	.st5{font-family:'Coolvetica-Light';}
	.st6{font-size:21.5095px;}
	.st7{font-family:'CoolveticaRg-Regular';}
	.st8{font-size:34.0051px;}
</style>
<rect width="257" height="93"/>
<rect x="54.22" y="43" class="st0" width="130" height="50"/>
<g>
	<g>
		<line class="st1" x1="182.15" y1="29.52" x2="184.41" y2="29.52"/>
		<path class="st2" d="M186.26,29.52h52.98c0,0,5.44,0.8,5.77,4.97v20.37c0,0-0.32,2.08-4.01,2.89h-2.7"/>
		<line class="st1" x1="237.38" y1="57.74" x2="235.12" y2="57.74"/>
	</g>
</g>
<g>
	<g>
		<line class="st1" x1="210.36" y1="57.74" x2="208.1" y2="57.74"/>
		<path class="st3" d="M206.28,57.74h-50.73c-4.8-0.53-4.78-3.47-4.78-3.47v-20.6c0-2.04,1.19-3.09,2.26-3.62
			c0.74-0.36,1.56-0.52,2.39-0.52h1.86h1.25"/>
		<line class="st1" x1="159.44" y1="29.52" x2="161.7" y2="29.52"/>
	</g>
</g>
<text transform="matrix(1 0 0 1 164.8665 50.7007)" class="st4 st5 st6">SiteLab</text>
<text transform="matrix(1 0 0 1 8.5471 55.5122)" class="st4 st7 st8">Fold Tech</text>
<path class="st4" d="M182.15,26.83L182.15,26.83c1.48,0,2.7,1.21,2.7,2.7l0,0c0,1.48-1.21,2.7-2.7,2.7l0,0c-1.48,0-2.7-1.21-2.7-2.7
	l0,0C179.46,28.04,180.67,26.83,182.15,26.83z"/>
<path class="st4" d="M164.17,26.83L164.17,26.83c1.48,0,2.7,1.21,2.7,2.7l0,0c0,1.48-1.21,2.7-2.7,2.7l0,0c-1.48,0-2.7-1.21-2.7-2.7
	l0,0C161.48,28.04,162.69,26.83,164.17,26.83z"/>
<path class="st4" d="M211.77,55.05L211.77,55.05c1.48,0,2.7,1.21,2.7,2.7l0,0c0,1.48-1.21,2.7-2.7,2.7l0,0c-1.48,0-2.7-1.21-2.7-2.7
	l0,0C209.08,56.26,210.29,55.05,211.77,55.05z"/>
<path class="st4" d="M232.41,55.05L232.41,55.05c1.48,0,2.7,1.21,2.7,2.7l0,0c0,1.48-1.21,2.7-2.7,2.7l0,0c-1.48,0-2.7-1.21-2.7-2.7
	l0,0C229.71,56.26,230.93,55.05,232.41,55.05z"/>
</svg>
