<?xml version="1.0" encoding="utf-8"?>
<!-- Generator: Adobe Illustrator 29.8.2, SVG Export Plug-In . SVG Version: 9.03 Build 0)  -->
<svg version="1.0" id="Layer_1" xmlns="http://www.w3.org/2000/svg" xmlns:xlink="http://www.w3.org/1999/xlink" x="0px" y="0px"
	 viewBox="0 0 218.02 72.25" style="enable-background:new 0 0 218.02 72.25;" xml:space="preserve">
<style type="text/css">
	.st0{fill:#FFFFFF;}
	.st1{fill:none;stroke:#FFFFFF;stroke-width:0.2563;stroke-miterlimit:10;}
	.st2{fill:none;stroke:#FFFFFF;stroke-width:0.2025;stroke-miterlimit:10;}
</style>
<g>
	<path class="st0" d="M44.7,13.29l21.78,12.7l0.47,0.55v25.79l-0.47,0.55L60.6,56.1V30.08l-16.24-9.3L28.3,29.95V56.1l-6.41-3.59
		V26.36l0.34-0.79c6.79-3.93,13.59-7.87,20.39-11.82l1.83-0.47H44.7z"/>
	<path class="st0" d="M44.19,65.58c-2.89-2.11-6.18-3.69-9.24-5.55l-0.18-25.8l0.38-0.7l6.23-3.32v26.02c0,0.18,2.94,1.89,3.16,1.88
		c0.75-0.04,2.32-1.64,3.25-1.75V30.21l6.37,3.76l0.03,25.59l-0.52,0.77l-8.96,5.26H44.19z"/>
	<path class="st0" d="M78.54,26.62c1,0.16,2.92-0.41,3.56,0.41l8.62,21.89l8.71-22.05c0.47-0.56,2.66-0.12,3.46-0.26v25.63h-2.31
		v-22.3l-8.51,21.87c-0.21,0.62-1.81,0.57-2.26,0.3c-3.14-6.85-5.51-14.09-8.43-21.05c-0.13-0.31-0.04-0.79-0.54-0.87v22.04
		c-0.43,0-2.31,0.15-2.31-0.38V26.62z"/>
	<path class="st0" d="M138.01,33.54v2.82l-2.59-2.15c-12.95-5.94-15.89,17.65-3.67,17.76c2.82,0.03,4.57-1.21,6.25-3.3
		c-0.02,2.43,0.23,5.56-1.92,7.17c-1.93,1.44-6.56,1.58-8.3-0.15c-0.53-0.52-0.76-1.54-0.83-1.6c-0.23-0.2-1.8,0.06-2.27-0.04
		c0.97,5.61,10.72,6,13.84,2.43c0.53-0.61,1.43-2.56,1.54-3.33V33.54L138.01,33.54z M130.5,49.89c-5.82-1.18-5.91-13.92,0.78-14.74
		c3.71-0.46,6.3,2.19,6.69,5.73C138.53,45.97,136.57,51.12,130.5,49.89z"/>
	<path class="st0" d="M123.14,50.71c-1.03,0-1.98,0.31-2.25-0.95c-0.67-3.11,0.31-8.31-0.06-11.73c-0.75-6.98-14.23-6.16-13.84,1.16
		c2.8,0.25,1.7-0.12,2.44-1.79c1.11-2.55,5.85-2.96,7.95-1.54c1.24,0.84,1.93,3.38,1.01,4.6c-1.52,2.02-11.09,0.37-12.1,5.33
		c-1.62,7.97,8.84,9.06,12.38,3.66c0.09,2.1,1.18,3.22,3.33,3.08C123.42,52.42,123.19,52.01,123.14,50.71z M118.78,46.49
		c0,0.17-0.73,1.64-0.91,1.9c-2.46,3.58-10.51,3.92-9.28-2.1c0.69-3.39,7.73-2.58,10.19-4.03V46.49z"/>
	<path class="st0" d="M145.57,43.28h13.71c0.21-4.32-1.71-9.4-6.56-9.97c-12.93-1.51-13.19,20.33-0.52,19.42
		c3.7-0.27,6.28-2.47,6.83-6.12c-2.58-0.4-1.91,0.46-2.97,2.03c-2.54,3.74-8.28,2.52-10.06-1.42
		C145.75,46.67,144.56,43.28,145.57,43.28z M145.62,39.49c2.26-7.08,12.03-5.22,11.36,2.26h-11.41
		C144.97,41.74,145.49,39.89,145.62,39.49z"/>
	<path class="st0" d="M195.88,33.36c-9.81,1.25-9.66,18.7,0.7,19.4C209.08,53.61,209.13,31.66,195.88,33.36z M194.84,50.4
		c-5.52-2.06-5.48-14.73,2.08-15.27C206.89,34.43,205.42,54.35,194.84,50.4z"/>
	<path class="st0" d="M174.41,52.25V38.28c0-0.36-0.83-1.81-1.19-2.14c-1.98-1.82-6.57-0.75-8,1.41c-0.15,0.22-0.81,1.64-0.81,1.75
		v12.94h-2.31V33.54c2.73-0.34,2.37,0.51,2.31,2.82c2.57-3.91,10.7-4.43,11.93,0.75c1.03,4.35-0.01,9.99,0.37,14.5
		C176.55,52.65,175.2,52.16,174.41,52.25z"/>
	<path class="st0" d="M183.64,27.9v5.64c1.4,0.13,4.34-0.74,3.55,1.63c-0.27,0.81-2.77,0.27-3.55,0.42l0.06,13.66
		c0.35,1.5,2.08,1.34,3.28,0.95c0.74,2.75-2.4,2.54-4.12,1.68c-1.24-0.62-1.42-1.78-1.53-3.08c-0.36-4.22,0.29-8.94,0.01-13.21
		c-0.67-0.11-2.53,0.35-2.79-0.42c-0.84-2.51,2.78-1.42,2.78-1.63V27.9H183.64z"/>
	<circle class="st1" cx="208.69" cy="34.29" r="2.22"/>
	<g>
		<g>
			<path class="st0" d="M207.96,33h0.31v2.19h-0.31V33z M208.09,33.97h0.75c0.06,0,0.11-0.01,0.15-0.04
				c0.04-0.03,0.08-0.07,0.1-0.12c0.02-0.05,0.04-0.11,0.04-0.18c0-0.07-0.01-0.13-0.04-0.18c-0.02-0.05-0.06-0.09-0.1-0.12
				c-0.04-0.03-0.1-0.04-0.16-0.04h-0.75V33h0.73c0.13,0,0.24,0.03,0.33,0.08c0.1,0.05,0.17,0.13,0.22,0.22s0.08,0.21,0.08,0.33
				c0,0.13-0.03,0.24-0.08,0.33c-0.05,0.1-0.13,0.17-0.22,0.22c-0.1,0.05-0.21,0.08-0.33,0.08h-0.73V33.97z M208.69,34.2l0.3-0.07
				l0.56,1.06h-0.36L208.69,34.2z"/>
		</g>
	</g>
</g>
</svg>
